# AST/ASF file generated using VICON BodyLanguage
# -----------------------------------------------
:version 1.10
:name VICON
:units
  mass 1.0
  length 0.45
  angle deg
:documentation
   .ast/.asf automatically generated from VICON data using
   VICON BodyBuilder and BodyLanguage model FoxedUp or BRILLIANT.MOD
:root
   order TX TY TZ RX RY RZ
   axis XYZ
   position 0 0 0  
   orientation 0 0 0 
:bonedata
  begin
     id 1 
     name lhipjoint
     direction 0.625129 -0.738222 0.253461 
     length 2.5165 
     axis 0 0 0  XYZ
  end
  begin
     id 2 
     name lfemur
     direction 0.34202 -0.939693 0  
     length 7.54288  
     axis 0 0 20  XYZ
    dof rx ry rz
    limits (-160.0 20.0)
           (-70.0 70.0)
           (-60.0 70.0)
  end
  begin
     id 3 
     name ltibia
     direction 0.34202 -0.939693 0   
     length 7.71864   
     axis 0 0 20   XYZ
    dof rx
    limits (-10.0 170.0)
  end
  begin
     id 4 
     name lfoot
     direction 0.0772037 -0.212115 0.97419   
     length 2.18429   
     axis -90 7.62852e-016 20   XYZ
    dof rx rz
    limits (-45.0 90.0)
           (-70.0 20.0)
  end
  begin
     id 5 
     name ltoes
     direction 1.53513e-011 -4.21834e-011 1   
     length 1.09718   
     axis -90 7.62852e-016 20   XYZ
    dof rx
    limits (-90.0 20.0)
  end
  begin
     id 6 
     name rhipjoint
     direction -0.621946 -0.740623 0.254285   
     length 2.50835  
     axis 0 0 0  XYZ 
  end
  begin
     id 7 
     name rfemur
     direction -0.34202 -0.939693 0   
     length 7.43366   
     axis 0 0 -20   XYZ
    dof rx ry rz
    limits (-160.0 20.0)
           (-70.0 70.0)
           (-70.0 60.0)
  end
  begin
     id 8 
     name rtibia
     direction -0.34202 -0.939693 0   
     length 7.77122   
     axis 0 0 -20   XYZ
    dof rx
    limits (-10.0 170.0)
 end
 begin
     id 9 
     name rfoot
     direction -0.082694 -0.2272 0.970331   
     length 2.2293  
     axis -90 -7.62852e-016 -20   XYZ
    dof rx rz
    limits (-45.0 90.0)
           (-20.0 70.0)
  end
  begin
     id 10 
     name rtoes
     direction -1.53565e-011 -4.21695e-011 1   
     length 1.1178   
     axis -90 -7.62852e-016 -20   XYZ
    dof rx
    limits (-90.0 20.0)
  end
  begin
     id 11 
     name lowerback
     direction -0.000695208 0.988391 -0.151929   
     length 1.95077   
     axis 0 0 0   XYZ
    dof rx ry rz
    limits (-20.0 45.0)
           (-30.0 30.0)
           (-30.0 30.0)
  end
  begin
     id 12 
     name upperback
     direction -0.00268925 0.999885 -0.0149203   
     length 1.96246   
     axis 0 0 0   XYZ
    dof rx ry rz
    limits (-20.0 45.0)
           (-30.0 30.0)
           (-30.0 30.0)
  end
  begin
     id 13 
     name thorax
     direction -0.000848408 0.998481 0.0550912   
     length 2.00867   
     axis 0 0 0   XYZ
    dof rx ry rz
    limits (-20.0 45.0)
           (-30.0 30.0)
           (-30.0 30.0)
  end
  begin
     id 14 
     name lowerneck
     direction -0.00577709 0.998999 0.0443608   
     length 1.75762   
     axis 0 0 0   XYZ
    dof rx ry rz
    limits (-20.0 45.0)
           (-30.0 30.0)
           (-30.0 30.0)
  end
  begin
     id 15 
     name upperneck
     direction 0.0320945 0.999136 0.0264105   
     length 1.72601   
     axis 0 0 0   XYZ
    dof rx ry rz
    limits (-20.0 45.0)
           (-30.0 30.0)
           (-30.0 30.0)
  end
  begin
     id 16
     name head
     direction 0.0120552 0.999916 0.00480151  
     length 1.79973  
     axis 0 0 0   XYZ
    dof rx ry rz
    limits (-20.0 45.0)
           (-30.0 30.0)
           (-30.0 30.0)
  end
  begin
     id 17 
     name lclavicle
     direction 0.909 0.371533 -0.188897  
     length 3.47956  
     axis 0 0 0   XYZ
    dof ry rz
    limits (-20.0 10.0)
           (0.0 20.0)
  end
  begin
     id 18 
     name lhumerus
     direction 1 -4.48963e-011 -6.48352e-028   
     length 5.52302   
     axis 180 -30 -90   XYZ
    dof rx ry rz
    limits (-60.0 90.0)
           (-90.0 90.0)
           (-90.0 90.0)
  end
  begin
     id 19
     name lradius
     direction 1 -4.48968e-011 -4.78536e-027   
     length 3.58675   
     axis 180 -30 -90   XYZ
    dof rx
    limits (-10.0 170.0)
  end
  begin
     id 20
     name lwrist
     direction 1 -4.48942e-011 -9.9435e-027   
     length 1.79337   
     axis 8.54312e-015 90 90   XYZ
    dof ry
    limits (-180.0 0.0)
 end
  begin
     id 21 
     name lhand
     direction 1 -4.4904e-011 -1.9887e-026   
     length 0.536412   
     axis 1.26896e-014 90 90   XYZ
    dof rx rz
    limits (-90.0 90.0)
           (-45.0 45.0)
  end
  begin
     id 22 
     name lfingers
     direction 1 -4.48893e-011 -3.9774e-026   
     length 0.432469   
     axis 2.53792e-014 90 90   XYZ
    dof rx
    limits (0.0 90.0)
  end
  begin
     id 23
     name lthumb
     direction 0.707107 -6.34934e-011 0.707107   
     length 0.620942   
     axis -90 45 2.85299e-015   XYZ
    dof rx rz
    limits (-45.0 45.0)
           (-45.0 45.0)
  end
  begin
     id 24 
     name rclavicle
     direction -0.89595 0.416672 -0.153813   
     length 3.44099  
     axis 0 0 0   XYZ 
    dof ry rz
    limits (-10.0 20.0)
           (-20.0 0.0)
  end
  begin
     id 25 
     name rhumerus
     direction -1 -4.48952e-011 5.57804e-028  
     length 5.8478   
     axis 180 30 90   XYZ
    dof rx ry rz
    limits (-90.0 60.0)
           (-90.0 90.0)
           (-90.0 90.0)
  end
  begin
     id 26 
     name rradius
     direction -1 -4.48967e-011 -7.93646e-027   
     length 3.62717   
     axis 180 30 90   XYZ
    dof rx
    limits (-10.0 170.0)
  end
  begin
     id 27 
     name rwrist
     direction -1 -4.49008e-011 -9.9435e-027   
     length 1.81359   
     axis 8.54312e-015 -90 -90   XYZ
    dof ry
    limits (-180.0 0.0)
  end
  begin
     id 28
     name rhand
     direction -1 -4.48812e-011 -1.9887e-026   
     length 0.650516   
     axis 1.26896e-014 -90 -90   XYZ
    dof rx rz
    limits (-90.0 90.0)
           (-45.0 45.0)
  end
  begin
     id 29
     name rfingers
     direction -1 -4.49228e-011 -3.9774e-026   
     length 0.524463   
     axis 2.53792e-014 -90 -90   XYZ
    dof rx
    limits (0.0 90.0)
  end
  begin
     id 30
     name rthumb
     direction -0.707107 -6.34912e-011 0.707107   
     length 0.753027   
     axis -90 -45 -2.85299e-015   XYZ
    dof rx rz
    limits (-45.0 45.0)
           (-45.0 45.0)
  end
:hierarchy
  begin
    root lhipjoint rhipjoint lowerback
    lhipjoint lfemur
    lfemur ltibia
    ltibia lfoot
    lfoot ltoes
    rhipjoint rfemur
    rfemur rtibia
    rtibia rfoot
    rfoot rtoes
    lowerback upperback
    upperback thorax
    thorax lowerneck lclavicle rclavicle
    lowerneck upperneck
    upperneck head
    lclavicle lhumerus
    lhumerus lradius
    lradius lwrist
    lwrist lhand lthumb
    lhand lfingers
    rclavicle rhumerus
    rhumerus rradius
    rradius rwrist
    rwrist rhand rthumb
    rhand rfingers
  end

#!OML:ASF F:\VICON\USERDATA\INSTALL\rory3\rory3.ASF
:FULLY-SPECIFIED
:DEGREES
114
root 0.360844 18.5218 31.3625 5.8323 -1.48133 2.20953
lowerback 11.3902 -4.20165 -3.71784
upperback -0.950207 -6.09797 0.127291
thorax -6.98106 -2.83474 3.24597
lowerneck -4.29643 3.1928 -1.13495
upperneck -5.5796 4.27465 -0.397621
head -1.01448 2.15736 0.0777574
rclavicle 1.77912e-014 0
rhumerus -67.0766 7.36317 -84.5505
rradius 85.1797
rwrist -0.325335
rhand -37.3095 31.5105
rfingers 7.12502
rthumb -10.3732 1.78634
lclavicle 1.77912e-014 0
lhumerus -22.9998 -20.8783 89.4387
lradius 121.852
lwrist 29.4658
lhand -38.1697 4.80136
lfingers 7.12502
lthumb -11.2029 34.4823
rfemur -36.6833 7.76663 16.1241
rtibia 28.028
rfoot 4.11702 -9.6095
rtoes -11.1928
lfemur 29.8073 -4.0509 -28.3668
ltibia 10.7131
lfoot 31.0264 5.67495
ltoes -6.03938
115
root 0.366981 18.5258 31.9132 5.77277 -1.26831 2.48408
lowerback 11.0876 -4.14078 -3.44035
upperback -0.530384 -5.97558 -0.196257
thorax -6.43449 -2.81371 2.68531
lowerneck -5.78474 3.0496 -0.720949
upperneck -5.32014 4.08109 -0.371542
head -0.68372 2.05 0.0458681
rclavicle -1.49089e-015 -4.96962e-015
rhumerus -66.3194 6.49846 -84.4982
rradius 85.6195
rwrist 0.312201
rhand -38.0404 30.8384
rfingers 7.12502
rthumb -11.0782 1.15076
lclavicle -1.49089e-015 -4.96962e-015
lhumerus -22.9957 -21.7556 89.3079
lradius 121.365
lwrist 28.4772
lhand -37.8739 4.80623
lfingers 7.12502
lthumb -10.9176 34.5024
rfemur -35.5317 8.92646 15.2295
rtibia 24.2171
rfoot 3.11109 -12.2312
rtoes -11.0866
lfemur 28.7821 -4.79815 -29.0389
ltibia 15.2543
lfoot 29.3366 5.50857
ltoes -4.77792
116
root 0.371961 18.5116 32.4583 5.7436 -1.27809 2.9243
lowerback 11.434 -4.15562 -3.6227
upperback -0.894079 -6.0563 -0.327952
thorax -7.00938 -2.82599 2.71139
lowerneck -5.59692 3.06737 -0.60446
upperneck -5.24179 4.09921 -0.331158
head -0.6884 2.05679 0.0372467
rclavicle 1.02946e-013 2.16675e-014
rhumerus -66.7756 6.73741 -84.5684
rradius 86.0391
rwrist 0.53508
rhand -37.5397 31.2364
rfingers 7.12502
rthumb -10.5953 1.52345
lclavicle 1.02946e-013 2.16675e-014
lhumerus -24.7556 -21.7299 90.0458
lradius 120.951
lwrist 27.7181
lhand -37.3672 3.61932
lfingers 7.12502
lthumb -10.4289 33.3407
rfemur -34.6781 7.91646 15.2325
rtibia 21.3993
rfoot 1.86867 -12.695
rtoes -7.31763
lfemur 27.6386 -5.37 -29.8506
ltibia 19.766
lfoot 28.6206 4.57084
ltoes -6.36323
117
root 0.384173 18.4777 32.9968 5.57967 -1.32811 3.61186
lowerback 10.251 -4.12635 -4.22691
upperback -0.0531868 -6.01479 -0.429291
thorax -5.40194 -2.85257 2.78068
lowerneck -5.99983 2.98366 -0.869049
upperneck -6.13822 3.99842 -0.3303
head -0.904124 2.01286 0.0766525
rclavicle -9.57148e-014 3.77691e-015
rhumerus -65.1144 6.74161 -84.2767
rradius 86.1962
rwrist 0.69314
rhand -37.08 31.0525
rfingers 7.12502
rthumb -10.1518 1.31745
lclavicle -9.57148e-014 3.77691e-015
lhumerus -24.4447 -21.708 90.2326
lradius 120.291
lwrist 27.0584
lhand -37.4755 3.10509
lfingers 7.12502
lthumb -10.5334 32.8212
rfemur -33.8976 6.64516 15.2702
rtibia 19.6731
rfoot 0.73349 -13.0276
rtoes -3.50542
lfemur 26.5516 -5.89884 -30.9506
ltibia 24.426
lfoot 28.2092 3.93413
ltoes -7.47118
118
root 0.396708 18.4299 33.5351 5.2013 -1.36948 3.99035
lowerback 9.69484 -4.14887 -4.49992
upperback 0.555361 -6.0265 -0.479374
thorax -4.4276 -2.89314 2.7978
lowerneck -6.22882 2.96656 -0.959493
upperneck -6.80653 3.97081 -0.50392
head -1.07228 2.00356 0.0353953
rclavicle 3.76448e-014 1.94809e-014
rhumerus -63.8351 7.02485 -84.0996
rradius 86.3567
rwrist 0.803267
rhand -36.7348 31.5705
rfingers 7.12502
rthumb -9.81879 1.81941
lclavicle 3.76448e-014 1.94809e-014
lhumerus -24.636 -21.2576 90.356
lradius 119.275
lwrist 25.2511
lhand -37.1763 1.89283
lfingers 7.12502
lthumb -10.2447 31.6233
rfemur -32.9693 5.50801 15.7715
rtibia 18.7457
rfoot 0.778021 -13.3624
rtoes -3.45591
lfemur 25.4733 -5.34454 -31.1688
ltibia 29.3456
lfoot 28.4347 2.38209
ltoes -9.13144
119
root 0.407643 18.3711 34.0748 4.84209 -1.65767 4.11921
lowerback 11.4008 -4.34532 -3.1455
upperback -0.422887 -6.30222 -1.42007
thorax -6.64984 -2.99861 1.32147
lowerneck -5.87231 3.13176 -0.167433
upperneck -5.93876 4.1716 0.017205
head -0.85677 2.08289 0.0704015
rclavicle 3.15571e-014 -7.55382e-015
rhumerus -65.1393 7.23927 -85.645
rradius 86.7183
rwrist 0.991561
rhand -36.5441 33.1037
rfingers 7.12502
rthumb -9.63478 3.34406
lclavicle 3.15571e-014 -7.55382e-015
lhumerus -27.9043 -21.1033 90.0822
lradius 118.748
lwrist 24.1027
lhand -37.4291 1.50185
lfingers 7.12502
lthumb -10.4886 31.2202
rfemur -31.9139 4.67469 16.5471
rtibia 17.9886
rfoot 1.55356 -13.3512
rtoes -7.38879
lfemur 24.1065 -4.48444 -31.0813
ltibia 34.6256
lfoot 29.101 0.476591
ltoes -10.67
120
root 0.42174 18.3066 34.5944 4.66427 -2.16817 4.00833
lowerback 11.1826 -4.08733 -3.03768
upperback -0.19906 -5.92052 -1.33152
thorax -6.30381 -2.82503 1.26477
lowerneck -5.73085 3.04821 -0.258541
upperneck -6.32889 4.06195 -0.0598984
head -1.0002 2.03016 0.0544468
rclavicle -9.93923e-016 -6.36111e-015
rhumerus -64.2872 7.50179 -85.3951
rradius 87.1422
rwrist 0.853707
rhand -36.3787 34.4323
rfingers 7.12502
rthumb -9.47524 4.66529
lclavicle -9.93923e-016 -6.36111e-015
lhumerus -28.7456 -20.8749 90.6409
lradius 117.749
lwrist 23.0603
lhand -37.6082 1.64759
lfingers 7.12502
lthumb -10.6614 31.3571
rfemur -31.0405 4.04359 17.4969
rtibia 17.433
rfoot 3.11403 -11.9132
rtoes -5.69907
lfemur 22.3492 -3.38248 -30.6745
ltibia 39.9768
lfoot 30.019 -0.774774
ltoes -10.6025
121
root 0.425501 18.2339 35.0926 4.69305 -3.06947 3.00302
lowerback 10.2891 -3.49545 -3.39034
upperback 0.319703 -5.05431 -0.191202
thorax -5.1486 -2.41058 2.42377
lowerneck -4.92553 2.8717 -1.00759
upperneck -7.52042 3.82369 -0.627364
head -1.51021 1.93727 -0.0235432
rclavicle 3.69988e-014 -1.69961e-014
rhumerus -62.8562 8.27549 -83.9728
rradius 87.9457
rwrist 0.315848
rhand -35.9713 34.3175
rfingers 7.12502
rthumb -9.08208 4.53308
lclavicle 3.69988e-014 -1.69961e-014
lhumerus -28.8192 -20.214 92.128
lradius 116.496
lwrist 21.9818
lhand -37.7329 2.15465
lfingers 7.12502
lthumb -10.7816 31.8579
rfemur -30.2657 3.93421 19.4023
rtibia 16.9745
rfoot 3.69927 -10.3318
rtoes -8.74555
lfemur 20.1936 -1.93856 -29.215
ltibia 45.5472
lfoot 30.8968 -1.25336
ltoes -10.0753
122
root 0.435376 18.1416 35.6313 3.98587 -3.66862 2.50028
lowerback 10.7558 -3.31446 -2.80986
upperback 0.381826 -4.7564 -0.138512
thorax -5.40489 -2.27124 2.14681
lowerneck -4.26658 2.93138 -0.898515
upperneck -7.58624 3.89163 -0.672493
head -1.63936 1.97055 -0.0669107
rclavicle 2.72832e-014 4.27387e-015
rhumerus -62.5989 9.04033 -84.1924
rradius 89.044
rwrist -0.332294
rhand -35.2794 33.2407
rfingers 7.12502
rthumb -8.41443 3.42836
lclavicle 2.72832e-014 4.27387e-015
lhumerus -30.3581 -19.5674 92.4963
lradius 115.504
lwrist 21.4352
lhand -37.9086 4.11328
lfingers 7.12502
lthumb -10.9511 33.8077
rfemur -28.4795 3.40298 20.7676
rtibia 17.0702
rfoot 5.3706 -8.27388
rtoes -5.87785
lfemur 19.1374 -0.68805 -28.3716
ltibia 50.9634
lfoot 31.3357 -0.844039
ltoes -8.86684
123
root 0.441709 18.0423 36.145 3.05086 -4.23602 2.02011
lowerback 11.936 -3.06094 -2.35326
upperback 0.5596 -4.38623 -0.0629557
thorax -5.92486 -2.08826 1.98822
lowerneck -4.47329 2.90599 -0.86428
upperneck -7.32091 3.86371 -0.611186
head -1.52023 1.95372 -0.0472891
rclavicle -2.73702e-014 2.62396e-014
rhumerus -61.7714 9.75035 -84.232
rradius 90.0747
rwrist -1.11867
rhand -34.9734 32.3629
rfingers 7.12502
rthumb -8.1191 2.53884
lclavicle -2.73702e-014 2.62396e-014
lhumerus -31.6053 -19.0227 92.7881
lradius 114.461
lwrist 21.2503
lhand -37.7717 5.74467
lfingers 7.12502
lthumb -10.819 35.446
rfemur -26.9066 2.71312 21.9601
rtibia 18.0952
rfoot 6.4416 -5.31536
rtoes -3.25463
lfemur 18.1211 0.74518 -27.226
ltibia 56.4305
lfoot 31.2036 -0.49758
ltoes -9.8588
124
root 0.447929 17.9402 36.6592 2.23084 -4.87133 1.51719
lowerback 12.8503 -2.74246 -1.83688
upperback 0.711146 -3.90455 0.0120713
thorax -6.32635 -1.85734 1.74833
lowerneck -4.39205 2.72219 -1.01598
upperneck -7.15874 3.63473 -0.377297
head -1.48959 1.8397 0.0498874
rclavicle -1.59463e-014 3.37934e-015
rhumerus -60.8715 10.4388 -84.1077
rradius 91.0249
rwrist -1.65581
rhand -35.2812 32.2734
rfingers 7.12502
rthumb -8.41616 2.46107
lclavicle -1.59463e-014 3.37934e-015
lhumerus -32.915 -18.5413 93.129
lradius 113.323
lwrist 21.1223
lhand -37.8314 5.13461
lfingers 7.12502
lthumb -10.8766 34.8329
rfemur -25.9631 2.09062 23.2004
rtibia 20.3892
rfoot 5.8275 -0.897965
rtoes 3.86571
lfemur 16.975 2.41923 -25.7492
ltibia 61.7978
lfoot 30.5558 0.0385619
ltoes -8.99431
